<?xml version="1.0" encoding="UTF-8"?>
<!-- Generator: Adobe Illustrator 15.1.0, SVG Export Plug-In . SVG Version: 6.00 Build 0)  -->
<!DOCTYPE svg PUBLIC "-//W3C//DTD SVG 1.1//EN" "http://www.w3.org/Graphics/SVG/1.1/DTD/svg11.dtd">
<svg version="1.1" id="Layer_1" xmlns="http://www.w3.org/2000/svg" xmlns:xlink="http://www.w3.org/1999/xlink" x="0px" y="0px" width="72px" height="72px" viewBox="0 0 72 72" enable-background="new 0 0 72 72" xml:space="preserve">
<g>
	
		<radialGradient id="SVGID_1_" cx="157.5771" cy="-30.6753" r="26.9971" gradientTransform="matrix(-0.0816 1.0553 -0.9248 -0.1467 20.4902 -134.791)" gradientUnits="userSpaceOnUse">
		<stop offset="0" style="stop-color:#FFFFFF;stop-opacity:0"/>
		<stop offset="0.0853" style="stop-color:#F5F9F2;stop-opacity:0.0853"/>
		<stop offset="0.2313" style="stop-color:#DFEBD4;stop-opacity:0.2313"/>
		<stop offset="0.4204" style="stop-color:#BED7AD;stop-opacity:0.4204"/>
		<stop offset="0.6452" style="stop-color:#9AC184;stop-opacity:0.6452"/>
		<stop offset="0.8974" style="stop-color:#72AB58;stop-opacity:0.8974"/>
		<stop offset="1" style="stop-color:#61A346"/>
	</radialGradient>
	<path fill="url(#SVGID_1_)" stroke="#212120" stroke-miterlimit="10" d="M46.102,18.447c0,0,0.787-1.838,0.127-2.994   c-0.652-1.156-2.004-1.945-2.689-3.083c-0.691-1.138-0.549-2.461-0.549-2.461s-0.561,1.207-1.742,1.825   c-1.178,0.619-2.635,0.416-3.795,1.064c-1.161,0.65-1.481,2.95-1.481,2.95s-0.238-1.985-1.387-2.657   c-1.144-0.675-2.708-0.682-3.871-1.325c-1.168-0.64-1.705-1.857-1.705-1.857s0.117,1.326-0.598,2.452   c-0.71,1.124-2.073,1.677-2.755,2.819c-0.679,1.143,0.193,3.295,0.193,3.295s-1.198-1.6-2.53-1.607   c-1.327-0.012-2.687,0.764-4.015,0.788c-1.331,0.03-2.405-0.755-2.405-0.755s0.765,1.089,0.708,2.422   c-0.053,1.328-0.957,2.489-0.977,3.818c-0.016,1.33,1.815,2.758,1.815,2.758s-1.837-0.787-2.995-0.127   c-1.154,0.653-1.944,2.005-3.082,2.69c-1.138,0.692-2.461,0.548-2.461,0.548s1.207,0.561,1.824,1.744   c0.618,1.176,0.416,2.634,1.063,3.795c0.651,1.159,2.951,1.48,2.951,1.48s-1.984,0.237-2.658,1.387   c-0.673,1.144-0.681,2.709-1.323,3.871c-0.64,1.168-1.857,1.706-1.857,1.706s1.326-0.118,2.451,0.598   c1.124,0.709,1.678,2.073,2.818,2.754c1.145,0.679,3.296-0.193,3.296-0.193s-1.6,1.197-1.609,2.531   c-0.011,1.326,0.766,2.686,0.79,4.014c0.03,1.331-0.756,2.406-0.756,2.406s1.089-0.766,2.422-0.709   c1.327,0.053,2.489,0.957,3.817,0.977c1.33,0.016,2.758-1.815,2.758-1.815s-0.788,1.837-0.127,2.996   c0.653,1.153,2.006,1.942,2.691,3.081c0.691,1.138,0.548,2.462,0.548,2.462s0.56-1.208,1.743-1.825   c1.176-0.617,2.634-0.416,3.794-1.062c1.159-0.652,1.481-2.952,1.481-2.952s0.236,1.985,1.387,2.659   c1.143,0.672,2.709,0.679,3.871,1.322c1.168,0.64,1.705,1.857,1.705,1.857s-0.119-1.325,0.598-2.451   c0.709-1.123,2.072-1.678,2.754-2.817c0.678-1.145-0.192-3.298-0.192-3.298s1.198,1.602,2.53,1.609   c1.326,0.012,2.686-0.766,4.016-0.791C54.025,54.313,55.1,55.1,55.1,55.1s-0.766-1.089-0.709-2.421   c0.053-1.328,0.957-2.49,0.977-3.818c0.016-1.33-1.815-2.758-1.815-2.758s1.839,0.787,2.995,0.128   c1.154-0.653,1.943-2.006,3.082-2.692c1.139-0.691,2.461-0.547,2.461-0.547s-1.207-0.561-1.824-1.743   c-0.617-1.176-0.416-2.635-1.062-3.795c-0.652-1.159-2.951-1.481-2.951-1.481s1.984-0.237,2.656-1.385   c0.674-1.145,0.682-2.709,1.324-3.873c0.641-1.167,1.859-1.704,1.859-1.704s-1.328,0.116-2.453-0.598   c-1.125-0.71-1.678-2.074-2.818-2.755c-1.145-0.679-3.296,0.193-3.296,0.193s1.601-1.198,1.608-2.529   c0.012-1.329-0.764-2.687-0.789-4.016C54.314,17.974,55.1,16.9,55.1,16.9s-1.09,0.764-2.422,0.708   c-1.328-0.053-2.49-0.958-3.818-0.977C47.529,16.615,46.102,18.447,46.102,18.447z"/>
	<circle fill="#FFFFFF" stroke="#212120" stroke-miterlimit="10" cx="35.999" cy="36.001" r="20.205"/>
	<radialGradient id="SVGID_2_" cx="35.9985" cy="36.0005" r="20.2046" gradientUnits="userSpaceOnUse">
		<stop offset="0" style="stop-color:#FFFFFF;stop-opacity:0"/>
		<stop offset="1" style="stop-color:#61A346"/>
	</radialGradient>
	<circle fill="url(#SVGID_2_)" stroke="#212120" stroke-miterlimit="10" cx="35.999" cy="36.001" r="20.205"/>
	<g>
		<radialGradient id="SVGID_3_" cx="36.0894" cy="36.0215" r="16.4414" gradientUnits="userSpaceOnUse">
			<stop offset="0" style="stop-color:#FFFFFF;stop-opacity:0"/>
			<stop offset="0.0852" style="stop-color:#F7FAF5;stop-opacity:0.0852"/>
			<stop offset="0.22" style="stop-color:#E4EEDB;stop-opacity:0.22"/>
			<stop offset="0.3875" style="stop-color:#C7DDB7;stop-opacity:0.3875"/>
			<stop offset="0.5812" style="stop-color:#A7C993;stop-opacity:0.5812"/>
			<stop offset="0.7939" style="stop-color:#84B56C;stop-opacity:0.7939"/>
			<stop offset="1" style="stop-color:#61A346"/>
		</radialGradient>
		<polygon fill="url(#SVGID_3_)" stroke="#212120" stroke-linejoin="bevel" stroke-miterlimit="10" points="53.464,25.921     42.044,25.92 47.753,35.81   "/>
		<radialGradient id="SVGID_4_" cx="36.0903" cy="36.0215" r="16.4412" gradientUnits="userSpaceOnUse">
			<stop offset="0" style="stop-color:#FFFFFF;stop-opacity:0"/>
			<stop offset="0.0852" style="stop-color:#F7FAF5;stop-opacity:0.0852"/>
			<stop offset="0.22" style="stop-color:#E4EEDB;stop-opacity:0.22"/>
			<stop offset="0.3875" style="stop-color:#C7DDB7;stop-opacity:0.3875"/>
			<stop offset="0.5812" style="stop-color:#A7C993;stop-opacity:0.5812"/>
			<stop offset="0.7939" style="stop-color:#84B56C;stop-opacity:0.7939"/>
			<stop offset="1" style="stop-color:#61A346"/>
		</radialGradient>
		<polygon fill="url(#SVGID_4_)" stroke="#212120" stroke-linejoin="bevel" stroke-miterlimit="10" points="18.312,25.919     24.243,36.191 30.174,25.92   "/>
		<radialGradient id="SVGID_5_" cx="36.0903" cy="36.021" r="16.441" gradientUnits="userSpaceOnUse">
			<stop offset="0" style="stop-color:#FFFFFF;stop-opacity:0"/>
			<stop offset="0.0852" style="stop-color:#F7FAF5;stop-opacity:0.0852"/>
			<stop offset="0.22" style="stop-color:#E4EEDB;stop-opacity:0.22"/>
			<stop offset="0.3875" style="stop-color:#C7DDB7;stop-opacity:0.3875"/>
			<stop offset="0.5812" style="stop-color:#A7C993;stop-opacity:0.5812"/>
			<stop offset="0.7939" style="stop-color:#84B56C;stop-opacity:0.7939"/>
			<stop offset="1" style="stop-color:#61A346"/>
		</radialGradient>
		<polygon fill="url(#SVGID_5_)" stroke="#212120" stroke-linejoin="bevel" stroke-miterlimit="10" points="41.822,46.082     29.952,46.081 35.887,56.361   "/>
		
			<radialGradient id="SVGID_6_" cx="-144.2397" cy="26.6841" r="16.4412" gradientTransform="matrix(-1 0 0 -1 -108.334 62.6641)" gradientUnits="userSpaceOnUse">
			<stop offset="0" style="stop-color:#FFFFFF;stop-opacity:0"/>
			<stop offset="0.0852" style="stop-color:#F7FAF5;stop-opacity:0.0852"/>
			<stop offset="0.22" style="stop-color:#E4EEDB;stop-opacity:0.22"/>
			<stop offset="0.3875" style="stop-color:#C7DDB7;stop-opacity:0.3875"/>
			<stop offset="0.5812" style="stop-color:#A7C993;stop-opacity:0.5812"/>
			<stop offset="0.7939" style="stop-color:#84B56C;stop-opacity:0.7939"/>
			<stop offset="1" style="stop-color:#61A346"/>
		</radialGradient>
		<polygon fill="url(#SVGID_6_)" stroke="#212120" stroke-linejoin="bevel" stroke-miterlimit="10" points="53.684,46.082     47.753,35.81 41.822,46.082   "/>
		
			<radialGradient id="SVGID_7_" cx="-144.2402" cy="26.6846" r="16.44" gradientTransform="matrix(-1 0 0 -1 -108.334 62.6641)" gradientUnits="userSpaceOnUse">
			<stop offset="0" style="stop-color:#FFFFFF;stop-opacity:0"/>
			<stop offset="0.0852" style="stop-color:#F7FAF5;stop-opacity:0.0852"/>
			<stop offset="0.22" style="stop-color:#E4EEDB;stop-opacity:0.22"/>
			<stop offset="0.3875" style="stop-color:#C7DDB7;stop-opacity:0.3875"/>
			<stop offset="0.5812" style="stop-color:#A7C993;stop-opacity:0.5812"/>
			<stop offset="0.7939" style="stop-color:#84B56C;stop-opacity:0.7939"/>
			<stop offset="1" style="stop-color:#61A346"/>
		</radialGradient>
		<polygon fill="url(#SVGID_7_)" stroke="#212120" stroke-linejoin="bevel" stroke-miterlimit="10" points="18.533,46.081     29.952,46.081 24.243,36.191   "/>
		
			<radialGradient id="SVGID_8_" cx="-144.2397" cy="26.6836" r="16.4406" gradientTransform="matrix(-1 0 0 -1 -108.334 62.6641)" gradientUnits="userSpaceOnUse">
			<stop offset="0" style="stop-color:#FFFFFF;stop-opacity:0"/>
			<stop offset="0.0852" style="stop-color:#F7FAF5;stop-opacity:0.0852"/>
			<stop offset="0.22" style="stop-color:#E4EEDB;stop-opacity:0.22"/>
			<stop offset="0.3875" style="stop-color:#C7DDB7;stop-opacity:0.3875"/>
			<stop offset="0.5812" style="stop-color:#A7C993;stop-opacity:0.5812"/>
			<stop offset="0.7939" style="stop-color:#84B56C;stop-opacity:0.7939"/>
			<stop offset="1" style="stop-color:#61A346"/>
		</radialGradient>
		<polygon fill="url(#SVGID_8_)" stroke="#212120" stroke-linejoin="bevel" stroke-miterlimit="10" points="36.109,15.641     30.174,25.92 42.044,25.92   "/>
		<radialGradient id="SVGID_9_" cx="36.0903" cy="36.022" r="16.4398" gradientUnits="userSpaceOnUse">
			<stop offset="0" style="stop-color:#FFFFFF;stop-opacity:0"/>
			<stop offset="0.0852" style="stop-color:#F7FAF5;stop-opacity:0.0852"/>
			<stop offset="0.22" style="stop-color:#E4EEDB;stop-opacity:0.22"/>
			<stop offset="0.3875" style="stop-color:#C7DDB7;stop-opacity:0.3875"/>
			<stop offset="0.5812" style="stop-color:#A7C993;stop-opacity:0.5812"/>
			<stop offset="0.7939" style="stop-color:#84B56C;stop-opacity:0.7939"/>
			<stop offset="1" style="stop-color:#61A346"/>
		</radialGradient>
		<polygon fill="url(#SVGID_9_)" stroke="#212120" stroke-linejoin="bevel" stroke-miterlimit="10" points="47.753,35.81     42.044,25.92 30.174,25.92 24.243,36.191 29.952,46.081 41.822,46.082   "/>
		
			<radialGradient id="SVGID_10_" cx="-144.2397" cy="26.6841" r="16.4398" gradientTransform="matrix(-1 0 0 -1 -108.334 62.6641)" gradientUnits="userSpaceOnUse">
			<stop offset="0" style="stop-color:#FFFFFF;stop-opacity:0"/>
			<stop offset="0.0418" style="stop-color:#F1F6ED;stop-opacity:0.0418"/>
			<stop offset="0.2503" style="stop-color:#BBD5A9;stop-opacity:0.2503"/>
			<stop offset="0.4469" style="stop-color:#98C082;stop-opacity:0.4469"/>
			<stop offset="0.6256" style="stop-color:#80B267;stop-opacity:0.6256"/>
			<stop offset="0.783" style="stop-color:#6FAA55;stop-opacity:0.783"/>
			<stop offset="0.9132" style="stop-color:#65A54A;stop-opacity:0.9132"/>
			<stop offset="1" style="stop-color:#61A346"/>
		</radialGradient>
		<polygon fill="url(#SVGID_10_)" stroke="#212120" stroke-miterlimit="10" points="47.753,35.81 42.044,25.92 30.174,25.92     24.243,36.191 29.952,46.081 41.822,46.082   "/>
	</g>
</g>
</svg>
